<?xml version="1.0" encoding="UTF-8" standalone="no"?>
<!-- Created with Inkscape (http://www.inkscape.org/) -->
<svg
   xmlns:dc="http://purl.org/dc/elements/1.1/"
   xmlns:cc="http://web.resource.org/cc/"
   xmlns:rdf="http://www.w3.org/1999/02/22-rdf-syntax-ns#"
   xmlns:svg="http://www.w3.org/2000/svg"
   xmlns="http://www.w3.org/2000/svg"
   xmlns:sodipodi="http://sodipodi.sourceforge.net/DTD/sodipodi-0.dtd"
   xmlns:inkscape="http://www.inkscape.org/namespaces/inkscape"
   width="1206.5544"
   height="536.79028"
   id="svg2"
   sodipodi:version="0.32"
   inkscape:version="0.44.1"
   sodipodi:docbase="/home/pobsicri/Documents/Tesia/Resources/EHU_logo"
   sodipodi:docname="ehu_logo.svg"
   version="1.0">
  <defs
     id="defs4" />
  <sodipodi:namedview
     id="base"
     pagecolor="#ffffff"
     bordercolor="#666666"
     borderopacity="1.0"
     gridtolerance="10000"
     guidetolerance="10"
     objecttolerance="10"
     inkscape:pageopacity="0.0"
     inkscape:pageshadow="2"
     inkscape:zoom="0.45961941"
     inkscape:cx="508.39108"
     inkscape:cy="378.44231"
     inkscape:document-units="px"
     inkscape:current-layer="layer1"
     inkscape:window-width="1272"
     inkscape:window-height="943"
     inkscape:window-x="0"
     inkscape:window-y="0"
     showguides="true"
     inkscape:guide-bbox="true"
     width="1250px" />
  <metadata
     id="metadata7">
    <rdf:RDF>
      <cc:Work
         rdf:about="">
        <dc:format>image/svg+xml</dc:format>
        <dc:type
           rdf:resource="http://purl.org/dc/dcmitype/StillImage" />
      </cc:Work>
    </rdf:RDF>
  </metadata>
  <g
     inkscape:groupmode="layer"
     id="layer2"
     inkscape:label="curve"
     style="opacity:1;display:inline"
     transform="translate(234.3846,-50.57372)">
    <path
       style="fill:black;fill-opacity:1;fill-rule:evenodd;stroke:black;stroke-width:1.00300002;stroke-linecap:round;stroke-linejoin:round;stroke-miterlimit:4;stroke-dasharray:none;stroke-opacity:1"
       d="M 341.52937,180.48791 C 349.24521,181.45239 347.49963,182.13967 349.24521,176.62999 C 350.80037,171.72134 354.82419,153.53438 354.3501,141.90872 C 354.0037,133.41436 354.08429,135.72497 347.31625,132.94592 C 340.33402,130.07891 329.27363,128.40601 327.34467,128.40601 C 325.41571,128.40601 307.10972,126.88649 297.16331,126.47705 C 291.30581,126.23593 288.72411,125.03033 288.48299,119.72569 C 288.22274,114.00025 288.21369,111.18315 288.48299,105.2585 C 288.72411,99.953856 288.00075,97.060416 278.8382,97.542656 C 257.1193,98.685756 218.20913,98.816856 202.64431,99.471616 C 198.78228,99.634076 194.13449,98.024896 194.92847,108.15194 C 197.60614,142.30496 195.98105,200.84041 198.1044,236.42772 C 198.3929,241.26295 200.97776,250.61825 209.56114,250.49542 C 214.8282,250.42004 240.96532,252.24302 252.79725,253.10636 C 259.73832,253.61284 259.14911,257.41225 259.14911,259.34121 C 259.14911,261.27017 259.1666,278.0152 259.26612,286.81468 C 259.34885,294.13102 261.73368,294.57909 266.29996,298.15442 C 268.5698,299.93167 274.06574,305.23544 279.80268,307.79921 C 282.4621,308.98768 285.46954,310.72461 289.89545,311.09215 C 300.32547,311.95829 302.45979,311.78827 308.05508,311.65713 C 313.17818,311.53706 315.57618,309.66967 316.4529,319.70392 C 317.7565,334.62384 317.94822,357.72965 317.69987,370.88989 C 317.58286,377.09046 317.07725,377.18826 324.16874,377.24175 C 347.72093,377.4383 386.61163,379.25079 412.21888,377.92374 C 419.7341,377.53428 424.43005,377.40558 425.15661,359.31614 C 426.17457,333.97137 424.65445,322.61171 425.15661,305.87026 C 425.47033,295.41107 433.38771,292.31574 439.2243,291.80256 C 462.1262,289.78891 497.29609,287.84781 510.59579,287.94464 C 516.52529,287.98781 517.45358,284.67098 521.32209,278.86483 C 524.86583,273.54612 523.06558,276.29943 525.46249,271.266 C 527.7032,266.56061 527.7321,265.28701 527.95643,260.37423 C 528.23893,254.18786 527.51606,254.33852 527.95643,249.93043 C 528.37103,245.78037 528.66276,244.94263 532.49634,243.46157 C 537.48923,241.53261 536.88497,241.73236 543.15408,242.2146 C 549.4232,242.69684 551.70632,244.99874 557.57281,246.07252 C 564.86491,247.40725 567.29483,246.91288 571.64051,244.82555 C 573.91294,243.73404 577.72603,242.63694 582.64928,240.28564 C 587.87118,237.7917 588.35342,235.17487 588.43616,228.71188 C 588.76387,203.11436 588.39521,162.96458 588.43616,138.05081 C 588.44118,134.99777 588.853,130.027 583.00031,129.20501 C 574.19445,127.96826 560.49415,125.16589 550.53896,124.54809 C 541.43491,123.98311 539.44243,120.43192 537.71824,118.76121 C 533.16639,114.35057 533.13881,114.16142 529.32041,109.6814 C 525.862,105.62373 523.80097,105.34124 517.06467,105.2585 C 500.71759,105.05771 470.40707,105.57065 463.50177,105.2585 C 456.76544,104.95398 458.31414,105.70647 457.94891,113.53932 C 457.62736,120.43545 456.71368,128.4627 457.26692,131.13397 C 458.5139,137.15487 463.11231,136.43861 465.54774,136.80384 C 470.58036,137.55855 467.95122,137.37325 475.19254,138.05081 C 483.67812,138.84479 487.34115,141.00121 495.39814,142.02574 C 502.94348,142.9852 505.3739,143.36964 506.05589,148.70854 C 506.3003,150.62196 510.89369,172.40251 510.71281,181.73487 C 510.57156,189.02196 508.74957,190.44946 506.85489,190.81469 C 501.13329,191.91761 493.40502,191.26514 487.44829,191.37967 C 482.88414,191.46743 482.3434,190.84394 481.77842,187.75577 C 480.67567,181.72815 480.41444,170.7261 480.41444,168.79714 C 480.41444,163.45822 478.70925,164.57292 476.10855,164.37424 C 470.63939,163.9564 460.7636,164.02588 454.20801,163.80926 C 450.66685,163.69225 446.42865,164.07254 446.94014,170.04411 C 448.14829,184.14894 449.25015,207.07528 450.79806,219.74908 C 451.16329,222.73945 450.56442,222.88229 457.26692,222.92501 C 460.99491,222.94876 463.38968,223.13443 473.4976,222.24302 C 476.90709,221.94234 478.82648,221.01526 479.05046,226.54891 C 479.25692,231.64964 479.16747,237.7917 479.16747,241.64962 C 479.16747,246.18953 482.02663,251.9764 475.99154,252.42437 C 464.54616,253.27394 437.14769,255.37485 435.24938,255.71732 C 424.79103,257.60404 424.93632,252.92994 424.47462,246.75451 C 424.3308,244.83092 423.36424,233.27359 423.11064,226.10094 C 422.97442,222.24804 414.94684,219.74908 413.01787,219.74908 C 411.08892,219.74908 378.96698,216.96522 365.92385,215.77415 C 359.04129,215.14565 358.89001,218.71605 358.20802,224.73696 C 357.99091,226.65366 358.35151,237.5619 358.89001,242.2146 C 359.62863,248.59641 361.91508,247.21604 366.48883,247.31949 C 370.147,247.40222 370.83152,247.56734 376.25064,248.00148 C 380.0793,248.3082 386.5823,250.20418 386.57742,260.14021 C 386.56872,276.65338 387.31052,295.01926 387.14241,308.59822 C 387.05967,315.28103 383.40149,315.51505 380.10856,315.51505 C 378.1796,315.51505 368.12243,314.50596 361.50095,314.26808 C 358.61595,314.16444 355.73675,311.55327 355.03209,304.62328 C 354.39873,298.39452 354.91508,286.46365 354.91508,284.53469 C 354.91508,278.51379 352.77218,278.29985 347.43326,278.29985 C 345.5043,278.29985 310.65612,276.85762 308.73707,277.05287 C 302.03417,277.73486 299.77426,275.80591 299.09227,269.22003 C 298.69489,265.38263 297.81577,260.65074 298.41028,255.6003 C 298.83401,252.00064 297.79987,249.99091 303.51517,249.36546 C 310.24941,248.62849 318.6556,246.15247 322.23978,244.14356 C 324.18324,243.05427 324.33924,241.53971 324.16874,238.35668 C 323.74304,230.40929 323.65593,220.27372 321.55779,212.31573 C 319.42908,204.24177 315.43918,208.75278 306.80811,210.38677 C 298.92728,211.87873 296.61038,213.74715 288.20051,210.10428 C 281.75747,207.31338 271.7458,203.97334 279.12069,192.06166 C 283.36183,185.2115 291.46554,165.44806 293.30539,161.19831 C 295.79057,155.45799 298.12779,156.61703 302.95019,158.30487 C 307.50754,159.89994 308.97819,159.51047 312.59499,161.19831 C 316.21179,162.88616 316.89167,163.37666 317.41738,166.02071 C 317.6585,167.23341 317.47406,166.35448 317.41738,170.84311 C 317.37433,174.25279 316.45291,176.14775 322.23978,176.62999 C 324.52433,176.82037 334.83015,179.6505 341.52937,180.48791 z "
       id="path1916"
       sodipodi:nodetypes="csssssssssssssssssssssssssssssssssssssssssssssssssssssssssssssssssssssssssssssssssssssssssssssssss" />
    <text
       xml:space="preserve"
       style="font-size:13.28443813px;font-style:normal;font-weight:normal;line-height:100%;fill:black;fill-opacity:1;stroke:none;stroke-width:1px;stroke-linecap:butt;stroke-linejoin:miter;stroke-opacity:1;font-family:Bitstream Vera Sans"
       x="237.88069"
       y="78.149025"
       id="text5494"
       sodipodi:linespacing="100%"
       transform="scale(1.003089,0.99692)"><tspan
         sodipodi:role="line"
         id="tspan5498"
         x="237.88069"
         y="78.149025"
         style="font-size:35.4251442px;font-style:normal;font-variant:normal;font-weight:normal;font-stretch:normal;text-align:start;line-height:100%;writing-mode:lr-tb;text-anchor:start;font-family:Nimbus Sans L">eman ta zabal zazu</tspan></text>
  </g>
  <g
     inkscape:groupmode="layer"
     id="layer1"
     inkscape:label="text"
     style="display:inline">
    <text
       xml:space="preserve"
       style="font-size:29.86910057px;font-style:normal;font-weight:normal;line-height:100%;opacity:1;fill:black;fill-opacity:1;stroke:none;stroke-width:1px;stroke-linecap:butt;stroke-linejoin:miter;stroke-opacity:1;display:inline;font-family:Bitstream Vera Sans"
       x="435.77444"
       y="562.823"
       id="text5504"
       sodipodi:linespacing="100%"
       transform="matrix(0.995612,0,0,1.004407,234.3846,-50.57372)"><tspan
         sodipodi:role="line"
         id="tspan5506"
         x="435.77444"
         y="562.823"
         style="font-size:79.65046692px;font-style:normal;font-variant:normal;font-weight:normal;font-stretch:normal;text-align:start;line-height:100%;writing-mode:lr-tb;text-anchor:start;font-family:Nimbus Sans L">Unibertsitatea</tspan></text>
    <text
       xml:space="preserve"
       style="font-size:30.09465981px;font-style:normal;font-weight:normal;line-height:100%;opacity:1;fill:black;fill-opacity:1;stroke:none;stroke-width:1px;stroke-linecap:butt;stroke-linejoin:miter;stroke-opacity:1;display:inline;font-family:Bitstream Vera Sans"
       x="433.39749"
       y="484.55209"
       id="text5500"
       sodipodi:linespacing="100%"
       transform="matrix(1.003089,0,0,0.99692,234.3846,-50.57372)"><tspan
         sodipodi:role="line"
         id="tspan5502"
         x="433.39749"
         y="484.55209"
         style="font-size:80.25236511px;font-style:normal;font-variant:normal;font-weight:normal;font-stretch:normal;text-align:start;line-height:100%;writing-mode:lr-tb;text-anchor:start;font-family:Nimbus Sans L">Euskal Herriko</tspan></text>
    <text
       xml:space="preserve"
       style="font-size:30.05744171px;font-style:normal;font-weight:normal;line-height:100%;opacity:1;fill:black;fill-opacity:1;stroke:none;stroke-width:1px;stroke-linecap:butt;stroke-linejoin:miter;stroke-opacity:1;display:inline;font-family:Bitstream Vera Sans"
       x="-122.07838"
       y="483.48502"
       id="text5508"
       sodipodi:linespacing="100%"
       transform="matrix(1.001894,0,0,0.99811,234.3846,-50.57372)"><tspan
         sodipodi:role="line"
         id="tspan5510"
         x="-122.07838"
         y="483.48502"
         style="font-size:80.15270996px;font-style:normal;font-variant:normal;font-weight:normal;font-stretch:normal;text-align:start;line-height:100%;writing-mode:lr-tb;text-anchor:start;font-family:Nimbus Sans L">Universidad</tspan></text>
    <text
       xml:space="preserve"
       style="font-size:29.76571465px;font-style:normal;font-weight:normal;line-height:100%;opacity:1;fill:black;fill-opacity:1;stroke:none;stroke-width:1px;stroke-linecap:butt;stroke-linejoin:miter;stroke-opacity:1;display:inline;font-family:Bitstream Vera Sans"
       x="-222.82047"
       y="561.33246"
       id="text5512"
       sodipodi:linespacing="100%"
       transform="matrix(0.992168,0,0,1.007894,234.3846,-50.57372)"><tspan
         sodipodi:role="line"
         id="tspan5514"
         x="-222.82047"
         y="561.33246"
         style="font-size:79.37477875px;font-style:normal;font-variant:normal;font-weight:normal;font-stretch:normal;text-align:start;line-height:100%;writing-mode:lr-tb;text-anchor:start;font-family:Nimbus Sans L">del País Vasco</tspan></text>
  </g>
</svg>
